<svg width="98" height="18" viewBox="0 0 98 18" fill="none" xmlns="http://www.w3.org/2000/svg">
  <path d="M13.92 2.112C13.92 1.92 13.6533 1.824 13.12 1.824C11.84 1.824 10.464 2.05867 8.992 2.528C7.52 2.976 6.25067 3.60533 5.184 4.416C4.13867 5.22667 3.616 6.03733 3.616 6.848C3.616 7.63733 4.544 9.00267 6.4 10.944C8.256 12.8853 9.184 14.3467 9.184 15.328C9.184 16.032 8.832 16.6187 8.128 17.088C7.424 17.5573 6.58133 17.792 5.6 17.792H4.8C2.752 17.792 1.32267 17.1627 0.512 15.904L0.576 15.712C1.49333 16.1387 2.47467 16.352 3.52 16.352C4.56533 16.352 5.6 16.1493 6.624 15.744C7.66933 15.3387 8.192 14.8587 8.192 14.304C8.192 13.984 7.73333 13.3333 6.816 12.352C5.04533 10.496 3.936 9.23733 3.488 8.576C3.06133 7.91467 2.848 7.12533 2.848 6.208C2.848 3.84 5.056 2.08 9.472 0.927999C11.4347 0.48 12.5547 0.256 12.832 0.256C13.1093 0.256 13.3653 0.287999 13.6 0.351999L14.4 1.184C14.7413 1.568 14.9333 1.888 14.976 2.144C14.976 2.592 14.4 3.12533 13.248 3.744C12.1173 4.34133 11.424 4.64 11.168 4.64L11.136 4.48L12.768 3.36C13.536 2.848 13.92 2.432 13.92 2.112ZM24.1075 2.112C24.1075 1.92 23.8408 1.824 23.3075 1.824C22.0275 1.824 20.6515 2.05867 19.1795 2.528C17.7075 2.976 16.4382 3.60533 15.3715 4.416C14.3262 5.22667 13.8035 6.03733 13.8035 6.848C13.8035 7.63733 14.7315 9.00267 16.5875 10.944C18.4435 12.8853 19.3715 14.3467 19.3715 15.328C19.3715 16.032 19.0195 16.6187 18.3155 17.088C17.6115 17.5573 16.7688 17.792 15.7875 17.792H14.9875C12.9395 17.792 11.5102 17.1627 10.6995 15.904L10.7635 15.712C11.6808 16.1387 12.6622 16.352 13.7075 16.352C14.7528 16.352 15.7875 16.1493 16.8115 15.744C17.8568 15.3387 18.3795 14.8587 18.3795 14.304C18.3795 13.984 17.9208 13.3333 17.0035 12.352C15.2328 10.496 14.1235 9.23733 13.6755 8.576C13.2488 7.91467 13.0355 7.12533 13.0355 6.208C13.0355 3.84 15.2435 2.08 19.6595 0.927999C21.6222 0.48 22.7422 0.256 23.0195 0.256C23.2968 0.256 23.5528 0.287999 23.7875 0.351999L24.5875 1.184C24.9288 1.568 25.1208 1.888 25.1635 2.144C25.1635 2.592 24.5875 3.12533 23.4355 3.744C22.3048 4.34133 21.6115 4.64 21.3555 4.64L21.3235 4.48L22.9555 3.36C23.7235 2.848 24.1075 2.432 24.1075 2.112Z" fill="white"/>
  <path d="M37.5597 16.133C35.951 16.133 34.621 15.7593 33.5697 15.012C32.531 14.252 31.9673 13.1437 31.8787 11.687H36.3627C36.426 12.4597 36.768 12.846 37.3887 12.846C37.6167 12.846 37.8067 12.7953 37.9587 12.694C38.1233 12.58 38.2057 12.409 38.2057 12.181C38.2057 11.8643 38.0347 11.611 37.6927 11.421C37.3507 11.2183 36.8187 10.9903 36.0967 10.737C35.2353 10.433 34.5197 10.1353 33.9497 9.844C33.3923 9.55267 32.911 9.12833 32.5057 8.571C32.1003 8.01367 31.904 7.298 31.9167 6.424C31.9167 5.55 32.1383 4.809 32.5817 4.201C33.0377 3.58033 33.652 3.11167 34.4247 2.795C35.21 2.47833 36.0903 2.32 37.0657 2.32C38.7123 2.32 40.017 2.7 40.9797 3.46C41.955 4.22 42.468 5.29033 42.5187 6.671H37.9777C37.965 6.291 37.87 6.01867 37.6927 5.854C37.5153 5.68933 37.3 5.607 37.0467 5.607C36.8693 5.607 36.7237 5.67033 36.6097 5.797C36.4957 5.911 36.4387 6.07567 36.4387 6.291C36.4387 6.595 36.6033 6.84833 36.9327 7.051C37.2747 7.241 37.813 7.47533 38.5477 7.754C39.3963 8.07067 40.093 8.37467 40.6377 8.666C41.195 8.95733 41.6763 9.36267 42.0817 9.882C42.487 10.4013 42.6897 11.0537 42.6897 11.839C42.6897 12.6623 42.487 13.4033 42.0817 14.062C41.6763 14.708 41.0873 15.2147 40.3147 15.582C39.542 15.9493 38.6237 16.133 37.5597 16.133ZM43.6017 10.642C43.6017 9.52733 43.8297 8.55833 44.2857 7.735C44.7543 6.899 45.4003 6.25933 46.2237 5.816C47.0597 5.37267 48.0097 5.151 49.0737 5.151C50.467 5.151 51.6387 5.54367 52.5887 6.329C53.5513 7.11433 54.1593 8.20367 54.4127 9.597H49.9477C49.783 9.03967 49.46 8.761 48.9787 8.761C48.6367 8.761 48.3643 8.91933 48.1617 9.236C47.9717 9.55267 47.8767 10.0213 47.8767 10.642C47.8767 11.2627 47.9717 11.7313 48.1617 12.048C48.3643 12.3647 48.6367 12.523 48.9787 12.523C49.46 12.523 49.783 12.2443 49.9477 11.687H54.4127C54.1593 13.0803 53.5513 14.1697 52.5887 14.955C51.6387 15.7403 50.467 16.133 49.0737 16.133C48.0097 16.133 47.0597 15.9113 46.2237 15.468C45.4003 15.0247 44.7543 14.3913 44.2857 13.568C43.8297 12.732 43.6017 11.7567 43.6017 10.642ZM63.2548 5.208C64.4835 5.208 65.4398 5.61967 66.1238 6.443C66.8205 7.26633 67.1688 8.381 67.1688 9.787V16H62.9698V10.319C62.9698 9.81233 62.8305 9.41333 62.5518 9.122C62.2858 8.818 61.9248 8.666 61.4688 8.666C61.0001 8.666 60.6328 8.818 60.3668 9.122C60.1008 9.41333 59.9678 9.81233 59.9678 10.319V16H55.7498V1.94H59.9678V6.918C60.2971 6.41133 60.7341 5.99967 61.2788 5.683C61.8361 5.36633 62.4948 5.208 63.2548 5.208ZM74.0899 16.133C73.0132 16.133 72.0442 15.9113 71.1829 15.468C70.3215 15.0247 69.6439 14.3913 69.1499 13.568C68.6685 12.732 68.4279 11.7567 68.4279 10.642C68.4279 9.52733 68.6685 8.55833 69.1499 7.735C69.6439 6.899 70.3215 6.25933 71.1829 5.816C72.0442 5.37267 73.0132 5.151 74.0899 5.151C75.1665 5.151 76.1355 5.37267 76.9969 5.816C77.8582 6.25933 78.5295 6.899 79.0109 7.735C79.5049 8.55833 79.7519 9.52733 79.7519 10.642C79.7519 11.7567 79.5049 12.732 79.0109 13.568C78.5295 14.3913 77.8582 15.0247 76.9969 15.468C76.1355 15.9113 75.1665 16.133 74.0899 16.133ZM74.0899 12.485C74.4825 12.485 74.8119 12.333 75.0779 12.029C75.3439 11.7123 75.4769 11.25 75.4769 10.642C75.4769 10.034 75.3439 9.578 75.0779 9.274C74.8119 8.95733 74.4825 8.799 74.0899 8.799C73.6972 8.799 73.3679 8.95733 73.1019 9.274C72.8359 9.578 72.7029 10.034 72.7029 10.642C72.7029 11.25 72.8295 11.7123 73.0829 12.029C73.3489 12.333 73.6845 12.485 74.0899 12.485ZM86.169 16.133C85.0923 16.133 84.1233 15.9113 83.262 15.468C82.4006 15.0247 81.723 14.3913 81.229 13.568C80.7476 12.732 80.507 11.7567 80.507 10.642C80.507 9.52733 80.7476 8.55833 81.229 7.735C81.723 6.899 82.4006 6.25933 83.262 5.816C84.1233 5.37267 85.0923 5.151 86.169 5.151C87.2456 5.151 88.2146 5.37267 89.076 5.816C89.9373 6.25933 90.6086 6.899 91.09 7.735C91.584 8.55833 91.831 9.52733 91.831 10.642C91.831 11.7567 91.584 12.732 91.09 13.568C90.6086 14.3913 89.9373 15.0247 89.076 15.468C88.2146 15.9113 87.2456 16.133 86.169 16.133ZM86.169 12.485C86.5616 12.485 86.891 12.333 87.157 12.029C87.423 11.7123 87.556 11.25 87.556 10.642C87.556 10.034 87.423 9.578 87.157 9.274C86.891 8.95733 86.5616 8.799 86.169 8.799C85.7763 8.799 85.447 8.95733 85.181 9.274C84.915 9.578 84.782 10.034 84.782 10.642C84.782 11.25 84.9086 11.7123 85.162 12.029C85.428 12.333 85.7636 12.485 86.169 12.485ZM97.3741 1.94V16H93.1561V1.94H97.3741Z" fill="#3D8697"/>
</svg>
